<?xml version="1.0" encoding="UTF-8"?>
<!DOCTYPE svg PUBLIC "-//W3C//DTD SVG 1.1//EN" "http://www.w3.org/Graphics/SVG/1.1/DTD/svg11.dtd">
<!-- Creator: CorelDRAW 2019 (64-Bit) -->
<svg xmlns="http://www.w3.org/2000/svg" xml:space="preserve" width="210mm" height="148mm" version="1.1" style="shape-rendering:geometricPrecision; text-rendering:geometricPrecision; image-rendering:optimizeQuality; fill-rule:evenodd; clip-rule:evenodd"
viewBox="0 0 21000 14800"
 xmlns:xlink="http://www.w3.org/1999/xlink"
 xmlns:xodm="http://www.corel.com/coreldraw/odm/2003">
 <defs>
  <style type="text/css">
   <![CDATA[
    .str0 {stroke:#C93023;stroke-width:317.5;stroke-linejoin:round;stroke-miterlimit:22.9256}
    .fil3 {fill:#FEFEFE}
    .fil0 {fill:#FEFEFE}
    .fil4 {fill:#C93023}
    .fil1 {fill:#C93023;fill-rule:nonzero}
    .fil2 {fill:#FEFEFE;fill-opacity:0.501961}
   ]]>
  </style>
 </defs>
 <g id="Слой_x0020_1">
  <metadata id="CorelCorpID_0Corel-Layer"/>
  <g id="_473178036016">
   <path class="fil1" d="M10050.81 7689.75c0,9.07 -13.04,13.6 -39.69,13.6 -20.98,0 -52.16,-1.13 -92.42,-3.4 -40.83,-2.27 -71.45,-3.4 -92.43,-3.4 -20.97,0 -52.73,1.13 -95.26,3.4 -41.95,2.27 -73.71,3.4 -94.68,3.4 -30.63,0 -69.75,-83.91 -117.37,-251.75 -47.64,-167.84 -95.83,-252.89 -145.16,-255.16 -40.26,-2.26 -145.16,-3.4 -315.83,-3.4l-258.55 0c-179.75,0 -282.37,1.14 -307.89,3.4 -39.13,3.4 -83.35,89.03 -132.69,256.29 -49.33,167.28 -87.32,250.62 -113.96,250.62l-371.96 0c-22.11,0 -33.46,-7.93 -33.46,-24.38 0,-11.9 7.95,-38.55 23.82,-79.38l414.49 -1110.2c35.15,-89.03 141.18,-347.01 318.09,-773.41 31.76,-70.88 74.84,-177.48 128.71,-319.8 13.61,-42.52 27.78,-63.51 43.66,-63.51 20.98,0 52.73,2.85 94.12,7.94 41.39,5.67 72.58,8.51 93.56,8.51 20.41,0 50.47,-2.84 91.29,-9.07 40.83,-6.24 70.88,-9.07 90.16,-9.07 9.63,0 23.81,19.85 41.95,59.53 25.52,62.38 153.67,397.48 383.87,1005.31 325.47,855.06 487.63,1285.99 487.63,1293.93zm-764.89 -922.53c-10.22,-26.65 -63.51,-168.97 -159.9,-425.83 -93.56,-249.48 -154.8,-414.49 -185.42,-495.56 -229.64,584.58 -344.17,891.34 -344.17,918.55 0,37.99 41.39,59.53 124.74,66.34 4.53,1.14 57.84,1.7 161.03,1.7l168.97 0c156.5,0 234.75,-21.54 234.75,-65.2zm2535.1 576.65c0,154.23 -8.51,264.23 -24.95,329.43 -7.93,32.32 -27.22,48.2 -57.84,48.2 -82.21,0 -204.69,-4.54 -368.55,-14.17 -163.87,-9.08 -286.34,-14.18 -368.56,-14.18 -77.11,0 -192.79,1.69 -346.45,5.1 -153.65,3.4 -269.33,5.1 -347.01,5.1 -27.78,0 -41.39,-13.6 -41.39,-41.39 0,-120.77 3.98,-302.78 11.91,-546.59 7.94,-243.82 11.9,-426.4 11.9,-548.31 0,-128.14 -5.67,-320.93 -17.01,-577.22 -11.33,-256.29 -17,-448.5 -17,-577.21 0,-24.38 13.6,-36.3 41.39,-36.3 20.41,0 50.46,1.71 91.85,5.11 40.82,3.4 72.01,5.1 92.99,5.1 19.85,0 51.04,-1.7 92.99,-5.1 42.53,-3.4 73.14,-5.11 93.56,-5.11 26.66,0 39.69,10.78 39.69,31.76 0,117.38 -4.54,293.71 -13.61,529.59 -9.07,235.87 -13.6,413.35 -13.6,531.86 0,57.26 0,145.16 0,262.52 -1.14,117.37 -1.71,204.69 -1.71,262.53 0,245.51 10.2,368.56 30.05,368.56 407.68,0 716.14,-9.65 923.66,-29.49 10.21,-1.13 35.73,-5.1 76.56,-11.91 32.88,-6.23 58.4,-9.63 76.54,-9.63 23.25,0 34.59,10.77 34.59,31.75zm2231.76 345.88c0,9.07 -13.04,13.6 -39.7,13.6 -20.97,0 -52.15,-1.13 -92.41,-3.4 -40.83,-2.27 -71.45,-3.4 -92.43,-3.4 -20.97,0 -52.73,1.13 -95.26,3.4 -41.95,2.27 -73.71,3.4 -94.68,3.4 -30.63,0 -69.75,-83.91 -117.37,-251.75 -47.64,-167.84 -95.83,-252.89 -145.16,-255.16 -40.26,-2.26 -145.16,-3.4 -315.83,-3.4l-258.56 0c-179.74,0 -282.36,1.14 -307.88,3.4 -39.13,3.4 -83.35,89.03 -132.69,256.29 -49.33,167.28 -87.32,250.62 -113.96,250.62l-371.97 0c-22.1,0 -33.45,-7.93 -33.45,-24.38 0,-11.9 7.95,-38.55 23.82,-79.38l414.48 -1110.2c35.15,-89.03 141.19,-347.01 318.1,-773.41 31.76,-70.88 74.84,-177.48 128.71,-319.8 13.6,-42.52 27.78,-63.51 43.66,-63.51 20.98,0 52.73,2.85 94.12,7.94 41.39,5.67 72.58,8.51 93.56,8.51 20.41,0 50.47,-2.84 91.28,-9.07 40.84,-6.24 70.89,-9.07 90.16,-9.07 9.64,0 23.82,19.85 41.96,59.53 25.52,62.38 153.67,397.48 383.87,1005.31 325.46,855.06 487.63,1285.99 487.63,1293.93zm-764.89 -922.53c-10.22,-26.65 -63.51,-168.97 -159.9,-425.83 -93.57,-249.48 -154.81,-414.49 -185.42,-495.56 -229.64,584.58 -344.17,891.34 -344.17,918.55 0,37.99 41.39,59.53 124.74,66.34 4.53,1.14 57.83,1.7 161.03,1.7l168.97 0c156.5,0 234.75,-21.54 234.75,-65.2zm2514.69 -1080.16c0,28.92 -10.21,43.09 -30.06,43.09 -31.18,0 -227.37,-6.8 -589.12,-20.41 -9.08,337.94 -13.62,608.41 -13.62,812.53 0,127 4.54,318.09 13.62,573.25 9.07,254.58 13.61,445.67 13.61,572.68 0,23.24 -15.88,35.15 -48.2,35.15 -19.85,0 -49.9,-1.7 -91.29,-5.1 -40.82,-3.41 -71.45,-5.1 -92.42,-5.1 -19.85,0 -50.46,1.69 -91.29,5.1 -40.82,3.4 -71.45,5.1 -91.28,5.1 -27.79,0 -41.4,-13.6 -41.4,-41.39 0,-126.44 5.1,-315.82 15.31,-569.28 10.2,-252.88 15.31,-443.41 15.31,-570.41 0,-197.32 -5.67,-468.35 -17.01,-812.53 -286.34,18.14 -496.71,27.21 -629.95,27.21 -13.05,0 -19.85,-5.67 -19.85,-16.43 0,-20.41 5.11,-48.77 15.31,-86.76 12.47,-48.76 19.85,-77.68 22.12,-86.19 2.27,-39.12 10.2,-92.99 23.81,-161.59 5.67,-14.18 14.74,-21.55 28.35,-21.55l19.84 1.7c391.81,22.68 650.37,34.03 775.68,34.03 110.57,0 292.01,-7.94 543.19,-24.39 171.81,-10.77 243.25,-16.44 214.34,-16.44 28.91,0 44.79,10.2 48.19,30.05 -2.26,-11.91 -3.4,41.39 -3.4,161.03 0,14.74 1.7,36.86 5.1,67.47 3.4,30.62 5.11,53.31 5.11,69.18zm2103.05 -277.83c0,128.71 -5.11,320.92 -15.32,577.21 -10.2,256.29 -15.31,448.51 -15.31,577.22 0,41.95 0.57,104.9 1.71,188.25 1.13,83.92 1.69,145.72 1.69,187.11 0,231.34 -21.54,391.8 -64.63,481.39 -66.91,137.22 -195.62,230.21 -387.27,278.97 -117.37,30.05 -282.94,44.79 -496.7,44.79 -387.83,0 -641.86,-64.07 -762.63,-192.78 -92.99,-99.22 -139.49,-298.81 -139.49,-597.63 0,-36.28 0.57,-98.09 1.71,-185.41 1.13,-86.75 1.69,-154.79 1.69,-204.69 0,-130.98 -5.67,-371.39 -17.01,-722.37 0,-90.72 -5.09,-226.23 -15.31,-407.12 -1.13,-13.04 -1.69,-22.11 -1.69,-26.08 0,-23.25 14.17,-35.16 43.08,-35.16 45.37,0 107.17,0.58 184.86,1.71 89.59,1.13 150.82,1.69 183.14,1.69 25.51,0 37.99,9.65 37.99,30.06 0,167.83 -3.4,421.28 -10.21,758.66 -6.8,337.94 -10.2,590.83 -10.2,758.67 0,190.51 42.52,319.78 128.14,387.27 72.58,59.53 207.53,89.58 403.14,89.58 178.61,0 305.06,-24.38 380.47,-73.15 95.25,-60.67 142.89,-174.64 142.89,-341.9 0,-175.21 -2.84,-437.73 -8.51,-788.15 -5.67,-350.41 -8.5,-612.94 -8.5,-788.14 0,-17.58 15.87,-28.36 48.19,-32.9 23.25,-3.4 56.14,-3.4 99.22,0 51.04,4.54 74.85,6.81 73.16,6.81 19.83,0 49.89,-1.7 90.15,-5.1 40.25,-3.4 70.31,-5.11 90.16,-5.11 27.78,0 41.39,11.91 41.39,36.3zm2140.47 2281.08c0,8.51 -9.09,13.04 -26.66,13.04 -20.98,0 -53.3,-1.7 -96.39,-5.1 -43.1,-3.41 -75.42,-5.1 -96.39,-5.1 -23.25,0 -57.84,1.69 -103.76,5.1 -45.93,3.4 -80.52,5.1 -103.77,5.1 -25.52,0 -44.8,-14.18 -58.4,-41.95 -35.72,-75.42 -137.22,-308.46 -305.05,-699.13 -16.44,-40.26 -56.7,-64.64 -120.77,-73.71 -14.18,-1.14 -64.65,-1.7 -150.27,-1.7 -152.52,0 -242.67,2.27 -271.59,6.8 -23.25,3.41 -34.59,31.19 -34.59,84.48 0,77.69 3.4,193.92 10.2,348.72 6.81,154.22 10.21,269.9 10.21,346.44 0,23.25 -10.77,35.16 -32.88,35.16 -22.12,0 -55.57,-2.84 -100.37,-7.37 -44.79,-5.11 -78.81,-7.94 -102.06,-7.94 -18.71,0 -47.63,1.69 -86.18,5.1 -38.56,3.4 -67.47,5.1 -86.19,5.1 -27.79,0 -41.39,-12.47 -41.39,-37.99 0,-123.04 5.67,-307.88 17.01,-554.53 11.34,-246.66 17,-431.5 17,-554.54 0,-349.84 -13.03,-723.51 -39.12,-1119.85l-1.69 -26.65c-1.14,-22.12 22.11,-33.46 69.73,-33.46 95.26,0 238.15,-2.26 428.1,-7.36 189.95,-5.11 332.26,-7.38 426.4,-7.38 246.07,0 443.4,58.4 591.95,175.78 163.87,129.84 246.08,313.55 246.08,551.7 0,164.44 -22.11,293.15 -66.33,387.83 -46.5,99.23 -132.69,193.93 -258.56,284.08 -20.98,14.18 -31.19,28.36 -31.19,41.39 0,15.31 65.78,162.74 198.45,442.27 132.12,278.97 198.47,427.53 198.47,445.67zm-455.89 -1507.12c0,-200.71 -57.83,-334.53 -172.93,-402.01 -85.06,-49.9 -238.71,-74.84 -459.85,-74.84 -179.74,0 -271.03,14.18 -273.87,43.1 -7.94,60.09 -11.9,219.99 -11.9,480.26l0 317.51c3.4,2.27 10.76,4.54 21.54,6.81 19.85,2.27 52.73,4.53 98.1,7.93 104.89,5.67 218.86,8.51 340.77,8.51 305.62,0 458.14,-129.27 458.14,-387.27z"/>
   <path class="fil1" d="M8051.53 9264.8l-138.27 0c4.17,-99.96 6.33,-209.65 6.33,-329.08 0,-117.61 -2.16,-217.74 -6.33,-300.21l138.27 0c-4.17,81.33 -6.34,181.28 -6.34,300.21 0,121.41 2.17,231.1 6.34,329.08zm566.47 0l-130.11 0c7.17,-81.49 10.84,-163.96 10.84,-247.43 0,-50.64 -7.67,-84.95 -22.69,-102.93 -15.17,-17.97 -38.19,-27.04 -69.22,-27.04 -37.2,0 -72.38,12.53 -105.58,37.6 1.67,125.7 2.5,239.01 2.5,339.8l-131.44 0c5.83,-100.79 8.67,-180.12 8.67,-237.69 0,-77.04 -7.85,-149.78 -23.86,-218.07l125.11 -13.52 8.33 51.29 7.85 0c44.53,-38.1 95.92,-57.07 153.79,-57.07 50.21,0 90.4,11.71 120.59,34.97 30.03,23.42 45.22,66.47 45.22,129.33 0,9.39 -0.51,21.76 -1.34,37.44 -0.84,15.66 -1.16,31.66 -1.16,48.16 0,43.38 0.83,118.43 2.5,225.16zm398.32 -90.4l-8.33 86.11c-22.85,9.57 -51.55,14.35 -86.08,14.52 -52.71,-0.17 -92.57,-14.19 -119.26,-42.56 -26.69,-28.37 -40.03,-82.98 -40.03,-163.96 0,-48.5 0.33,-103.59 0.99,-165.12 -16.67,0 -39.19,0.83 -67.39,2.8l3.35 -95.17c25.01,1.98 48.37,2.97 69.89,2.97 0.32,-17.15 1.67,-62.03 3.83,-134.93l115.94 -14.02c-5.02,64.16 -7.35,113.82 -7.35,148.95 27.36,0 68.22,-1.33 122.59,-3.96l-3.82 96.16c-49.54,-1.97 -89.75,-2.8 -120.78,-2.8 -0.66,42.72 -0.99,87.76 -0.99,134.76 0,57.41 5.85,95.84 17.69,115.31 11.66,19.46 32.35,29.2 62.04,29.2 17.85,0 37.04,-2.81 57.71,-8.26zm497.91 -188.37c0,16.33 -1,37.78 -2.84,64.16l-314.76 5.29c4.5,36.44 20.35,66.8 47.38,90.88 27.03,24.26 62.55,36.3 106.58,36.3 48.89,0 100.76,-7.26 155.8,-21.78l-9.68 93.69c-45.04,16.17 -100.75,24.24 -167.13,24.24 -84.07,0 -148.46,-23.41 -193.33,-70.1 -44.87,-46.67 -67.22,-102.92 -67.22,-168.57 0,-68.63 21.36,-128.17 63.72,-178.65 42.54,-50.47 101.59,-75.55 177.32,-75.55 69.05,0 120.26,18.48 153.79,55.6 33.69,36.95 50.37,85.11 50.37,144.49zm-114.26 -4.45c0,-74.07 -32.02,-111.18 -95.91,-111.18 -60.88,0 -97.08,38.43 -108.42,115.14l204.33 -3.96zm524.77 -175.84l-28.36 112.99c-24.18,-9.57 -48.53,-14.51 -73.39,-14.51 -47.88,0 -79.41,21.27 -94.75,63.83 0,128.5 1.01,227.47 3.01,296.75l-130.12 0c5.68,-96.99 8.35,-176.17 8.35,-237.69 0,-76.71 -8.17,-149.45 -24.35,-218.07l124.6 -13.52c5.51,35.46 8.33,56.25 8.33,62.35l7.69 0c30.02,-45.37 69.88,-68.13 119.75,-68.13 23.53,0 49.89,5.27 79.24,16zm504.91 459.06l-130.1 0c7.18,-81.49 10.84,-163.96 10.84,-247.43 0,-50.64 -7.67,-84.95 -22.69,-102.93 -15.17,-17.97 -38.19,-27.04 -69.22,-27.04 -37.2,0 -72.39,12.53 -105.59,37.6 1.68,125.7 2.51,239.01 2.51,339.8l-131.44 0c5.82,-100.79 8.66,-180.12 8.66,-237.69 0,-77.04 -7.83,-149.78 -23.86,-218.07l125.12 -13.52 8.33 51.29 7.86 0c44.52,-38.1 95.91,-57.07 153.78,-57.07 50.21,0 90.41,11.71 120.59,34.97 30.03,23.42 45.21,66.47 45.21,129.33 0,9.39 -0.5,21.76 -1.33,37.44 -0.84,15.66 -1.17,31.66 -1.17,48.16 0,43.38 0.83,118.43 2.5,225.16zm506.25 -0.49l-115.26 3.95c-5.33,-13.69 -7.84,-25.89 -7.84,-36.78l-6.34 0c-35.86,30.19 -84.23,45.36 -145.12,45.36 -40.86,0 -74.55,-11.21 -101.41,-33.48 -27.02,-22.44 -40.36,-52.13 -40.36,-89.25 0,-48.99 20.85,-89.07 62.71,-120.25 41.86,-31.34 115.26,-47.83 220.17,-49.81 0.68,-5.77 1.01,-11.38 1.01,-16.49 0,-34.81 -8.51,-57.73 -25.36,-68.79 -17.01,-11.21 -48.03,-16.66 -93.4,-16.66 -49.21,0 -97.25,6.43 -144.11,19.3l10.67 -88.91c44.36,-15.17 106.91,-22.76 187.65,-22.76 59.04,0 104.58,12.21 136.61,36.79 32.18,24.41 48.21,67.29 48.21,128.49 0,13.52 -0.67,38.11 -1.84,73.9 -1,35.79 -1.67,59.71 -1.67,71.58 0,66.65 5.17,121.25 15.68,163.81zm-130.44 -100.46c-2,-43.54 -3.01,-81.16 -3.01,-112.66 -111.08,0 -166.63,27.88 -166.63,83.62 0,38.27 24.52,57.41 73.4,57.41 38.36,0 70.39,-9.4 96.24,-28.37zm514.1 10.55l-8.34 86.11c-22.85,9.57 -51.55,14.35 -86.08,14.52 -52.71,-0.17 -92.57,-14.19 -119.25,-42.56 -26.7,-28.37 -40.04,-82.98 -40.04,-163.96 0,-48.5 0.33,-103.59 1,-165.12 -16.68,0 -39.2,0.83 -67.39,2.8l3.34 -95.17c25.02,1.98 48.37,2.97 69.89,2.97 0.34,-17.15 1.67,-62.03 3.83,-134.93l115.94 -14.02c-5.02,64.16 -7.34,113.82 -7.34,148.95 27.35,0 68.22,-1.33 122.59,-3.96l-3.83 96.16c-49.54,-1.97 -89.74,-2.8 -120.77,-2.8 -0.67,42.72 -1,87.76 -1,134.76 0,57.41 5.85,95.84 17.69,115.31 11.66,19.46 32.35,29.2 62.04,29.2 17.85,0 37.04,-2.81 57.72,-8.26zm212.01 90.4l-131.45 0c4.67,-66.64 6.85,-143.17 6.85,-229.62 0,-85.6 -5.51,-160.65 -16.52,-225.15l140.61 -14.02c-4.16,62.51 -6.33,142.19 -6.33,239.17 0,82.81 2.34,159.35 6.84,229.62zm22.52 -605.04c0,21.94 -7.51,41.07 -22.69,57.57 -15.18,16.33 -36.38,24.58 -63.39,24.58 -22.69,0 -40.54,-7.1 -53.37,-21.29 -13.01,-14.18 -19.35,-31.17 -19.35,-51.13 0,-21.94 7.51,-40.91 22.68,-57.08 15.18,-16.16 36.36,-24.24 63.72,-24.24 23.19,0 41.04,7.1 53.55,21.11 12.5,14.03 18.85,30.85 18.85,50.48zm558.95 364.87c0,81.16 -25.19,144.67 -75.72,190.35 -50.38,45.86 -109.94,68.63 -178.32,68.63 -65.23,0 -121.1,-20.79 -167.64,-62.52 -46.54,-41.74 -69.89,-100.46 -69.89,-176.17 0,-81.49 25.35,-145.32 76.23,-191.34 50.87,-46.19 110.43,-69.12 178.81,-69.12 64.9,0 120.6,20.95 166.98,63.02 46.37,42.05 69.55,101.11 69.55,177.15zm-127.43 14.52c0,-46.69 -11.18,-85.94 -33.2,-117.77 -22.19,-31.68 -51.04,-47.51 -86.57,-47.51 -34.53,0 -62.55,14.85 -84.24,44.36 -21.68,29.69 -32.53,66.81 -32.53,111.18 0,46.69 11.01,85.94 33.2,117.78 22.17,31.67 51.05,47.51 86.57,47.51 34.52,0 62.55,-14.85 84.23,-44.38 21.69,-29.69 32.54,-66.8 32.54,-111.17zm657.37 225.65l-130.11 0c7.17,-81.49 10.84,-163.96 10.84,-247.43 0,-50.64 -7.68,-84.95 -22.68,-102.93 -15.18,-17.97 -38.19,-27.04 -69.23,-27.04 -37.19,0 -72.38,12.53 -105.58,37.6 1.67,125.7 2.5,239.01 2.5,339.8l-131.43 0c5.82,-100.79 8.66,-180.12 8.66,-237.69 0,-77.04 -7.84,-149.78 -23.86,-218.07l125.11 -13.52 8.34 51.29 7.84 0c44.54,-38.1 95.93,-57.07 153.8,-57.07 50.21,0 90.39,11.71 120.59,34.97 30.03,23.42 45.21,66.47 45.21,129.33 0,9.39 -0.5,21.76 -1.33,37.44 -0.84,15.66 -1.17,31.66 -1.17,48.16 0,43.38 0.82,118.43 2.5,225.16zm506.25 -0.49l-115.26 3.95c-5.34,-13.69 -7.85,-25.89 -7.85,-36.78l-6.33 0c-35.86,30.19 -84.23,45.36 -145.12,45.36 -40.87,0 -74.56,-11.21 -101.41,-33.48 -27.03,-22.44 -40.36,-52.13 -40.36,-89.25 0,-48.99 20.84,-89.07 62.71,-120.25 41.86,-31.34 115.26,-47.83 220.17,-49.81 0.68,-5.77 1,-11.38 1,-16.49 0,-34.81 -8.5,-57.73 -25.35,-68.79 -17.01,-11.21 -48.03,-16.66 -93.41,-16.66 -49.2,0 -97.24,6.43 -144.12,19.3l10.69 -88.91c44.36,-15.17 106.91,-22.76 187.65,-22.76 59.04,0 104.58,12.21 136.61,36.79 32.18,24.41 48.2,67.29 48.2,128.49 0,13.52 -0.66,38.11 -1.83,73.9 -1,35.79 -1.67,59.71 -1.67,71.58 0,66.65 5.17,121.25 15.68,163.81zm-130.45 -100.46c-2,-43.54 -3,-81.16 -3,-112.66 -111.08,0 -166.63,27.88 -166.63,83.62 0,38.27 24.52,57.41 73.4,57.41 38.36,0 70.39,-9.4 96.23,-28.37zm370.32 100.95l-133.44 0c5,-110.51 7.33,-230.27 7.33,-359.1 0,-125.53 -5.01,-232.42 -15.18,-320.34l141.29 -7.75c-4.85,91.22 -7.34,200.58 -7.34,328.09 0,129.48 2.49,249.24 7.34,359.1zm618.84 -90.4l-8.33 86.11c-22.86,9.57 -51.55,14.35 -86.09,14.52 -52.7,-0.17 -92.56,-14.19 -119.25,-42.56 -26.69,-28.37 -40.04,-82.98 -40.04,-163.96 0,-48.5 0.33,-103.59 1.01,-165.12 -16.68,0 -39.2,0.83 -67.39,2.8l3.33 -95.17c25.03,1.98 48.37,2.97 69.89,2.97 0.34,-17.15 1.67,-62.03 3.84,-134.93l115.93 -14.02c-5.01,64.16 -7.34,113.82 -7.34,148.95 27.35,0 68.22,-1.33 122.6,-3.96l-3.84 96.16c-49.53,-1.97 -89.73,-2.8 -120.77,-2.8 -0.65,42.72 -0.99,87.76 -0.99,134.76 0,57.41 5.84,95.84 17.68,115.31 11.67,19.46 32.36,29.2 62.05,29.2 17.85,0 37.03,-2.81 57.71,-8.26zm395.83 -368.66l-28.36 112.99c-24.19,-9.57 -48.54,-14.51 -73.4,-14.51 -47.87,0 -79.39,21.27 -94.74,63.83 0,128.5 1,227.47 3,296.75l-130.1 0c5.67,-96.99 8.33,-176.17 8.33,-237.69 0,-76.71 -8.16,-149.45 -24.35,-218.07l124.61 -13.52c5.51,35.46 8.34,56.25 8.34,62.35l7.68 0c30.02,-45.37 69.88,-68.13 119.76,-68.13 23.51,0 49.87,5.27 79.23,16zm460.87 458.57l-115.27 3.95c-5.33,-13.69 -7.83,-25.89 -7.83,-36.78l-6.33 0c-35.87,30.19 -84.24,45.36 -145.13,45.36 -40.86,0 -74.55,-11.21 -101.4,-33.48 -27.03,-22.44 -40.38,-52.13 -40.38,-89.25 0,-48.99 20.86,-89.07 62.73,-120.25 41.86,-31.34 115.24,-47.83 220.17,-49.81 0.68,-5.77 1,-11.38 1,-16.49 0,-34.81 -8.51,-57.73 -25.35,-68.79 -17.01,-11.21 -48.04,-16.66 -93.41,-16.66 -49.21,0 -97.25,6.43 -144.12,19.3l10.67 -88.91c44.38,-15.17 106.93,-22.76 187.66,-22.76 59.05,0 104.59,12.21 136.61,36.79 32.19,24.41 48.2,67.29 48.2,128.49 0,13.52 -0.65,38.11 -1.83,73.9 -1,35.79 -1.66,59.71 -1.66,71.58 0,66.65 5.17,121.25 15.67,163.81zm-130.44 -100.46c-2,-43.54 -3,-81.16 -3,-112.66 -111.1,0 -166.63,27.88 -166.63,83.62 0,38.27 24.52,57.41 73.38,57.41 38.38,0 70.4,-9.4 96.25,-28.37zm646.87 -358.11c0,18.64 -29.03,95.18 -87.4,229.44 -58.38,134.44 -87.42,210.97 -87.42,229.62l-133.43 0c0,-20.62 -26.02,-98.98 -77.72,-235.05 -51.89,-136.09 -77.74,-210.81 -77.74,-224.01l142.79 0c0,14.51 16.01,70.43 48.03,167.92 32.19,97.48 48.21,154.72 48.21,171.72l6.33 0c0,-15.35 15.36,-69.61 45.88,-162.32 30.69,-92.86 46.04,-151.91 46.04,-177.32l126.43 0zm491.74 180.29c0,16.33 -1.01,37.78 -2.84,64.16l-314.76 5.29c4.5,36.44 20.35,66.8 47.37,90.88 27.03,24.26 62.55,36.3 106.59,36.3 48.88,0 100.75,-7.26 155.79,-21.78l-9.68 93.69c-45.03,16.17 -100.75,24.24 -167.13,24.24 -84.07,0 -148.46,-23.41 -193.32,-70.1 -44.87,-46.67 -67.22,-102.92 -67.22,-168.57 0,-68.63 21.35,-128.17 63.71,-178.65 42.54,-50.47 101.6,-75.55 177.32,-75.55 69.05,0 120.26,18.48 153.8,55.6 33.69,36.95 50.37,85.11 50.37,144.49zm-114.27 -4.45c0,-74.07 -32.01,-111.18 -95.91,-111.18 -60.88,0 -97.08,38.43 -108.42,115.14l204.33 -3.96zm348.3 283.22l-133.45 0c5.01,-110.51 7.33,-230.27 7.33,-359.1 0,-125.53 -5,-232.42 -15.17,-320.34l141.29 -7.75c-4.85,91.22 -7.34,200.58 -7.34,328.09 0,129.48 2.49,249.24 7.34,359.1zm934.44 -326.28c0,98.98 -30.53,180.96 -91.93,246.11 -61.2,65 -136.94,97.49 -227.17,97.49 -86.07,0 -157.96,-29.85 -216.02,-89.57 -58.05,-59.71 -86.9,-135.75 -86.9,-227.79 0,-98.98 30.52,-180.96 91.74,-246.11 61.38,-65 137.12,-97.49 227.36,-97.49 85.91,0 157.96,29.69 216.01,89.4 57.87,59.56 86.91,135.6 86.91,227.96zm-134.78 14.03c0,-67.31 -17.52,-121.91 -52.38,-163.8 -34.86,-41.9 -77.9,-62.84 -128.95,-62.84 -47.7,0 -88.06,21.11 -121.26,63.34 -33.19,42.22 -49.87,95.5 -49.87,159.99 0,66.97 17.51,121.57 52.55,163.64 35.02,41.9 77.89,63.01 128.77,63.01 47.52,0 87.9,-21.11 121.26,-63.51 33.2,-42.38 49.88,-95.67 49.88,-159.83zm698.23 62.84c0,69.94 -20.18,131.3 -60.54,184.09 -40.37,52.95 -95.58,79.33 -165.64,79.33 -52.2,0 -87.9,-10.88 -107.59,-32.82l-5.84 0c0,78.85 1.18,158.85 3.51,239.68l-132.95 0c5.85,-92.54 8.85,-199.09 8.85,-320.01 0,-155.88 -8.51,-274.8 -25.52,-356.62l125.09 -13.52 7.34 41.56 7.85 0c34.85,-31.84 82.23,-47.83 142.28,-47.83 62.55,0 111.93,22.27 148.45,66.97 36.53,44.54 54.71,97.64 54.71,159.17zm-129.93 12.54c0,-40.58 -10.18,-75.55 -30.7,-104.74 -20.67,-29.37 -48.87,-44.05 -85.06,-44.05 -45.04,0 -77.89,13.04 -98.75,39.09 4.83,90.56 7.34,173.53 7.34,248.92 20.51,15.83 47.03,23.75 79.56,23.75 43.38,0 75.56,-15.83 96.41,-47.67 20.86,-31.67 31.2,-70.1 31.2,-115.3zm643.03 -41.9c0,16.33 -1.01,37.78 -2.85,64.16l-314.76 5.29c4.5,36.44 20.36,66.8 47.38,90.88 27.02,24.26 62.55,36.3 106.59,36.3 48.87,0 100.75,-7.26 155.79,-21.78l-9.68 93.69c-45.04,16.17 -100.75,24.24 -167.13,24.24 -84.07,0 -148.46,-23.41 -193.33,-70.1 -44.87,-46.67 -67.22,-102.92 -67.22,-168.57 0,-68.63 21.36,-128.17 63.72,-178.65 42.54,-50.47 101.59,-75.55 177.32,-75.55 69.05,0 120.26,18.48 153.8,55.6 33.68,36.95 50.37,85.11 50.37,144.49zm-114.27 -4.45c0,-74.07 -32.02,-111.18 -95.91,-111.18 -60.88,0 -97.08,38.43 -108.42,115.14l204.33 -3.96zm524.77 -175.84l-28.36 112.99c-24.18,-9.57 -48.54,-14.51 -73.39,-14.51 -47.88,0 -79.41,21.27 -94.75,63.83 0,128.5 1.01,227.47 3.01,296.75l-130.12 0c5.67,-96.99 8.35,-176.17 8.35,-237.69 0,-76.71 -8.17,-149.45 -24.35,-218.07l124.6 -13.52c5.5,35.46 8.33,56.25 8.33,62.35l7.68 0c30.03,-45.37 69.89,-68.13 119.76,-68.13 23.53,0 49.89,5.27 79.24,16zm460.87 458.57l-115.26 3.95c-5.33,-13.69 -7.84,-25.89 -7.84,-36.78l-6.34 0c-35.86,30.19 -84.23,45.36 -145.11,45.36 -40.87,0 -74.55,-11.21 -101.42,-33.48 -27.01,-22.44 -40.36,-52.13 -40.36,-89.25 0,-48.99 20.85,-89.07 62.71,-120.25 41.86,-31.34 115.26,-47.83 220.18,-49.81 0.67,-5.77 1.01,-11.38 1.01,-16.49 0,-34.81 -8.52,-57.73 -25.37,-68.79 -17,-11.21 -48.03,-16.66 -93.39,-16.66 -49.22,0 -97.26,6.43 -144.12,19.3l10.67 -88.91c44.36,-15.17 106.92,-22.76 187.65,-22.76 59.04,0 104.6,12.21 136.61,36.79 32.2,24.41 48.21,67.29 48.21,128.49 0,13.52 -0.67,38.11 -1.83,73.9 -1.01,35.79 -1.68,59.71 -1.68,71.58 0,66.65 5.17,121.25 15.68,163.81zm-130.44 -100.46c-1.99,-43.54 -3,-81.16 -3,-112.66 -111.09,0 -166.64,27.88 -166.64,83.62 0,38.27 24.54,57.41 73.4,57.41 38.36,0 70.39,-9.4 96.24,-28.37zm514.1 10.55l-8.34 86.11c-22.85,9.57 -51.55,14.35 -86.08,14.52 -52.71,-0.17 -92.57,-14.19 -119.25,-42.56 -26.69,-28.37 -40.04,-82.98 -40.04,-163.96 0,-48.5 0.33,-103.59 1.01,-165.12 -16.69,0 -39.2,0.83 -67.39,2.8l3.33 -95.17c25.02,1.98 48.37,2.97 69.89,2.97 0.34,-17.15 1.67,-62.03 3.83,-134.93l115.94 -14.02c-5.02,64.16 -7.34,113.82 -7.34,148.95 27.35,0 68.22,-1.33 122.6,-3.96l-3.84 96.16c-49.54,-1.97 -89.74,-2.8 -120.77,-2.8 -0.66,42.72 -1,87.76 -1,134.76 0,57.41 5.85,95.84 17.69,115.31 11.66,19.46 32.35,29.2 62.05,29.2 17.85,0 37.03,-2.81 57.71,-8.26zm544.28 -149.77c0,81.16 -25.19,144.67 -75.73,190.35 -50.38,45.86 -109.92,68.63 -178.31,68.63 -65.22,0 -121.1,-20.79 -167.65,-62.52 -46.53,-41.74 -69.89,-100.46 -69.89,-176.17 0,-81.49 25.36,-145.32 76.23,-191.34 50.88,-46.19 110.43,-69.12 178.81,-69.12 64.9,0 120.61,20.95 166.99,63.02 46.37,42.05 69.55,101.11 69.55,177.15zm-127.44 14.52c0,-46.69 -11.17,-85.94 -33.2,-117.77 -22.18,-31.68 -51.03,-47.51 -86.57,-47.51 -34.53,0 -62.54,14.85 -84.23,44.36 -21.69,29.69 -32.53,66.81 -32.53,111.18 0,46.69 11.02,85.94 33.2,117.78 22.18,31.67 51.04,47.51 86.56,47.51 34.54,0 62.55,-14.85 84.24,-44.38 21.69,-29.69 32.53,-66.8 32.53,-111.17zm538.11 -233.41l-28.36 112.99c-24.18,-9.57 -48.53,-14.51 -73.4,-14.51 -47.86,0 -79.39,21.27 -94.74,63.83 0,128.5 1.01,227.47 3.01,296.75l-130.11 0c5.67,-96.99 8.35,-176.17 8.35,-237.69 0,-76.71 -8.17,-149.45 -24.36,-218.07l124.61 -13.52c5.5,35.46 8.33,56.25 8.33,62.35l7.68 0c30.03,-45.37 69.88,-68.13 119.76,-68.13 23.52,0 49.88,5.27 79.23,16z"/>
   <g>
    <g>
     <path class="fil2" d="M2848.58 10215.62c-9.46,-290.76 24.34,-889.32 35.13,-1234.86 7.3,-234.1 -28.49,-200.61 94.75,-327.22l208.69 -212.68c74.11,-73.15 137.97,-136.19 212.49,-208.76l438.39 -417.59 -45.01 1234.54c-10.57,36.88 -743.54,945.24 -885.53,1113.09 -33.61,39.74 -24.43,31.57 -58.91,53.48zm1099.36 -4508.27l0.33 0 0.33 0.67c0.71,0 1.24,1.62 1.66,2.31l0.33 0 0 0.33 0.66 0 0 0.33 0.99 0.66c0,0.7 0.33,0.29 0.33,1l0.33 0 0 0.33 3.31 1.65 0 0.33c0.48,0 0.66,0.18 0.66,0.66l0.33 0c0,0.95 1.32,1.48 1.32,2.32l0.33 0 0 0.33 1 0.66c0,0.37 0.36,1.65 0.99,1.65l0 0.33 0.33 0 0.66 1 20 0 -0.66 -21 -0.33 0 0 -0.33c-0.63,0 -0.99,-1.28 -0.99,-1.65l-1 -0.66 0 -0.33 -0.33 0c0,-0.84 -1.32,-1.38 -1.32,-2.32l-0.33 0c0,-0.48 -0.18,-0.66 -0.66,-0.66l0 -0.33 -3.31 -1.65 0 -0.33 -0.33 0c0,-0.71 -0.33,-0.3 -0.33,-1l-0.99 -0.66 0 -0.33 -0.66 0 0 -0.33 -0.33 0c-0.42,-0.69 -0.95,-2.31 -1.66,-2.31l-0.33 -0.67 -0.66 0 -0.66 -0.99c-6.83,0 -14.53,-0.33 -21.66,-0.33l0 20c1.15,0 1.13,0.33 1.66,0.33l0.66 0.99 0.33 0zm-1259.49 -1752.36c86.23,0 151.34,117.69 200.55,175.92l982.13 1214.77c57.65,72.91 107.35,130.43 156.82,204.31l260.55 -311.24c257.66,-319.61 766.25,-981.07 985.81,-1226.14 94.49,-105.5 258.76,-56.39 285.21,81.07l-11.6 553.68c0.64,112.17 -16.08,158.29 -15.44,270.46 2.16,378.44 -29.9,739.82 -29.9,1113.68l1695.91 -230.13c126.51,-16.59 395.65,-89.57 395.65,139.85 0,73.88 -122.89,175.55 -169.28,221.95 -181.95,181.95 -1271.14,1254.37 -1320.4,1327.91l1102.22 1094.69c79.03,79.03 327.28,287.57 327.28,394.99 0,86.7 -73.08,157.97 -151.79,164.38 -83.88,6.82 -1726.96,-254.67 -1879.59,-254.67 0,113.88 15.42,170.96 15.56,270.33 0.13,90.48 -0.5,181.23 -0.87,271.72 -0.42,104.92 16.22,146.16 15.6,255.25l24.7 1048.3c-15.24,68.27 -69.8,115.67 -132.84,125.59l-49.17 0c-41.07,-6.41 -82.36,-29.26 -116.25,-72.72l-1231.36 -1522.29c-36.05,68.13 -256.38,326 -324.54,412.78l-819.15 1016.6c-25.5,32.74 -50.54,66.68 -79.14,101.43 -30.98,37.63 -69.94,58.25 -109.34,64.2l-48.65 0c-65.52,-9.96 -123.29,-59.81 -136.1,-138.29l12.16 -523.84c-0.4,-109.3 14.56,-163.67 15.68,-255.15 1.18,-94.89 -0.56,-191.77 -0.95,-286.85 -0.42,-104.92 16.23,-146.15 15.6,-255.25 -1.12,-194.96 14.86,-347.38 14.86,-526.85 -50.14,24.05 -516.27,77.28 -616.1,91.12 -198.15,27.45 -416.47,60.02 -607.16,85.02 -211.79,27.75 -401.91,49.88 -610.03,82.57 -49.69,7.81 -99.65,21.67 -147.6,-7.87 -186.58,-114.96 -45.44,-248.68 13.45,-307.27l1038.27 -1038.26c84.93,-84.94 286.48,-266.46 342.33,-349.85 -58.45,-87.28 -275.53,-283.04 -364.9,-372.42l-729.79 -729.78c-67.17,-67.17 -334.81,-303.75 -334.81,-387.47 0,-86.34 64.72,-165.52 150.48,-165.52 265.26,0 1627.85,240.76 1865.86,240.76 0,-378.51 -29.04,-741.02 -29.59,-1129.06 -0.13,-99.9 -16.03,-155.94 -15.6,-270.29 0.32,-87.03 6.2,-201.15 -0.75,-285.15 -15,-181.26 -50.55,-376.78 166.01,-376.97zm2533.93 6261.6c-71.55,-47.91 -716.01,-872.67 -762.42,-930.46 -31.96,-39.77 -172,-200.64 -182.29,-236.78l-44.75 -1234.77c65.64,27.98 59.84,39.14 122.38,101.53l315.71 316.3c147.45,140.09 281.34,272.95 429.2,413.53 113.03,107.47 80.98,137.21 86.91,334.82 10.79,359.52 43.56,922.36 35.26,1235.83zm1689.05 -1463.36c-184.85,2.54 -562.69,-71.49 -764,-99.43 -829.01,-115.02 -602.27,25.16 -1272.99,-670l-318.06 -309.41c252.58,-17.42 594.07,8.47 855.95,13.98 386.62,8.11 400,-47.07 545.47,99.85l953.63 965.01zm-5793.28 3.77c43.95,-87.23 775.65,-783.41 865.16,-872.91 97.65,-97.66 152.85,-184.05 241.17,-188.92l1263.73 -22.66 -867.41 863.91c-47.66,37.01 -1349.23,206.32 -1502.65,220.58zm3160.65 -2988.41l558.58 -703.14c64.62,-80.82 123.75,-151.11 188.38,-232.83l196.62 -230.68c9.71,294.95 -24.74,899.2 -35.72,1249 -7.77,247.29 27.76,188.25 -99.93,321.56 -221.68,231.45 -629.31,639.15 -848.16,831.5l40.23 -1235.41zm-440.77 1235.41c-76.52,-53.18 -164.2,-146.9 -227.69,-208.82l-633.87 -630.06c-43.77,-42.41 -79.68,-52.33 -87.24,-118.93l-39.7 -1443.28c83.52,63.87 940.04,1157.53 942.48,1165.68l46.02 1235.41z"/>
     <path class="fil2" d="M5222.38 10216.59c8.3,-313.47 -24.47,-876.31 -35.26,-1235.83 -5.93,-197.61 26.12,-227.35 -86.91,-334.82 -147.86,-140.58 -281.75,-273.44 -429.2,-413.53l-315.71 -316.3c-62.54,-62.39 -56.74,-73.55 -122.38,-101.53l44.75 1234.77c10.29,36.14 150.33,197.01 182.29,236.78 46.41,57.79 690.87,882.55 762.42,930.46z"/>
     <path class="fil2" d="M1118.15 8757c153.42,-14.26 1454.99,-183.57 1502.65,-220.58l867.41 -863.91 -1263.73 22.66c-88.32,4.87 -143.52,91.26 -241.17,188.92 -89.51,89.5 -821.21,785.68 -865.16,872.91z"/>
     <path class="fil2" d="M2848.58 10215.62c34.48,-21.91 25.3,-13.74 58.91,-53.48 141.99,-167.85 874.96,-1076.21 885.53,-1113.09l45.01 -1234.54 -438.39 417.59c-74.52,72.57 -138.38,135.61 -212.49,208.76l-208.69 212.68c-123.24,126.61 -87.45,93.12 -94.75,327.22 -10.79,345.54 -44.59,944.1 -35.13,1234.86z"/>
     <path class="fil2" d="M4238.57 7004c218.85,-192.35 626.48,-600.05 848.16,-831.5 127.69,-133.31 92.16,-74.27 99.93,-321.56 10.98,-349.8 45.43,-954.05 35.72,-1249l-196.62 230.68c-64.63,81.72 -123.76,152.01 -188.38,232.83l-558.58 703.14 -40.23 1235.41z"/>
     <path class="fil2" d="M6911.43 8753.23l-953.63 -965.01c-145.47,-146.92 -158.85,-91.74 -545.47,-99.85 -261.88,-5.51 -603.37,-31.4 -855.95,-13.98l318.06 309.41c670.72,695.16 443.98,554.98 1272.99,670 201.31,27.94 579.15,101.97 764,99.43z"/>
     <path class="fil2" d="M3838.03 7004l-46.02 -1235.41c-2.44,-8.15 -858.96,-1101.81 -942.48,-1165.68l39.7 1443.28c7.56,66.6 43.47,76.52 87.24,118.93l633.87 630.06c63.49,61.92 151.17,155.64 227.69,208.82z"/>
    </g>
    <polygon class="fil3 str0" points="2682.6,4121.3 3978.86,5703.24 3987.39,7373.78 2726.93,6115.46 "/>
    <polygon class="fil3 str0" points="5423.05,4102.59 5312.94,6144.82 4192.41,7383.84 4110.66,5604.67 "/>
    <polygon class="fil4 str0" points="7421.33,5933.48 6004.3,7408.21 4346.56,7614.81 5446.51,6214.01 "/>
    <polygon class="fil3 str0" points="7376.17,8983.69 5350.74,8700.03 4211.66,7478.04 5991.33,7548.13 "/>
    <polygon class="fil3 str0" points="5417.2,10728.01 4113.17,9152.48 4096.41,7482 5363.05,8734.1 "/>
    <polygon class="fil3 str0" points="2668.07,10695.65 2776.29,8653.32 3895.68,7413.26 3979.07,9192.36 "/>
    <polygon class="fil3 str0" points="646.3,8969.45 2106.61,7537.56 3769.76,7380.4 2628.6,8747.84 "/>
    <polygon class="fil4 str0" points="718.75,5944.95 2753.02,6156 3935.07,7336.48 2154.03,7330.07 "/>
   </g>
  </g>
 </g>
</svg>
