<?xml version="1.0" encoding="UTF-8"?>
<svg id="_Слой_2" data-name="Слой 2" xmlns="http://www.w3.org/2000/svg" viewBox="0 0 592.42 152.31">
  <defs>
    <style>
      .cls-1 {
        fill: #1d1d1b;
      }

      .cls-2 {
        fill: #1b9fda;
      }
    </style>
  </defs>
  <g id="_Слой_1-2" data-name="Слой 1">
    <g>
      <g>
        <g>
          <g>
            <path d="M188.23,87.46h13.75v64.79h-13.75v-27.13h-29.16v27.13h-13.75v-64.79h13.75v25.23h29.16v-25.23Z"/>
            <path d="M255.03,152.25l-5.35-17.51h-25.1l-5.35,17.51h-13.56l20.95-64.79h21.32l21.04,64.79h-13.93ZM235.01,100.44l-6.92,22.5h17.9l-6.92-22.5h-4.06Z"/>
            <path d="M290.1,116.5h2.58l13.93-29.04h13.93l-31.56,64.79h-13.75l9.41-19.42-24.36-45.37h14.39l15.41,29.04Z"/>
            <path d="M324.33,152.25v-64.79h13.75v25.32h15.59l12.09-25.32h14.21l-14.76,31.49,15.59,33.3h-14.21l-12.83-27.22h-15.69v27.22h-13.75Z"/>
            <path d="M428.23,152.25l-5.35-17.51h-25.1l-5.35,17.51h-13.56l20.94-64.79h21.32l21.04,64.79h-13.93ZM408.21,100.44l-6.92,22.5h17.9l-6.92-22.5h-4.06Z"/>
          </g>
          <g>
            <polygon points="592.42 114.09 568.6 114.09 568.6 89.78 556.03 89.78 556.03 114.09 532.2 114.09 532.2 125.68 556.03 125.68 556.03 149.99 568.6 149.99 568.6 125.68 592.42 125.68 592.42 114.09"/>
            <path d="M495.66,87.46c-17.91,0-32.43,14.52-32.43,32.43s14.52,32.43,32.43,32.43,32.42-14.52,32.42-32.43-14.52-32.43-32.42-32.43ZM522.91,128.62c-.06,0-.11,0-.17-.02l-11.69-3.5c-.15.45-.32.9-.51,1.33l7.81,3.77c.29.14.41.48.27.77-.1.21-.31.33-.52.33-.08,0-.17-.02-.25-.06l-7.8-3.77c-.2.39-.42.77-.65,1.14l2.34,1.61c.26.18.33.54.15.8-.11.16-.29.25-.48.25-.11,0-.23-.03-.33-.1l-2.34-1.6c-.37.5-.77.99-1.19,1.45l6.05,6.07c.23.23.23.59,0,.82-.11.11-.26.17-.41.17s-.29-.06-.41-.17l-6.05-6.07c-.53.5-1.1.96-1.7,1.39l5.66,8.67c.17.27.1.62-.17.8-.1.06-.21.09-.32.09-.19,0-.37-.09-.48-.26l-5.66-8.67c-.45.27-.91.53-1.39.76l4.03,9.25c.13.29,0,.63-.3.76-.08.03-.15.05-.23.05-.22,0-.44-.13-.53-.35l-4.03-9.25c-.5.2-1.01.37-1.53.52l2.96,12.06c.08.31-.11.62-.42.7-.05.01-.09.02-.14.02-.26,0-.49-.18-.56-.44l-2.96-12.06c-.46.1-.93.17-1.41.23l.22,2.61c.03.32-.21.6-.53.62-.02,0-.03,0-.05,0-.29,0-.55-.23-.57-.53l-.22-2.61c-.26.01-.52.02-.78.02-.11,0-.22,0-.33,0l-.41,7.4c-.02.31-.27.55-.58.55,0,0-.02,0-.03,0-.32-.02-.56-.29-.54-.61l.41-7.39c-.55-.05-1.1-.13-1.64-.23l-3.01,13.02c-.06.27-.3.45-.56.45-.04,0-.09,0-.13-.02-.31-.07-.5-.38-.43-.69l3.01-13.02c-.68-.18-1.33-.41-1.97-.67l-4.1,9.03c-.1.21-.31.34-.53.34-.08,0-.16-.02-.24-.05-.29-.13-.42-.47-.29-.76l4.1-9.04c-.44-.22-.86-.46-1.27-.71l-6.15,9.26c-.11.17-.29.26-.48.26-.11,0-.22-.03-.32-.1-.27-.18-.34-.53-.16-.8l6.15-9.27c-.76-.55-1.47-1.16-2.12-1.83l-7.91,7.25c-.11.1-.25.15-.39.15-.16,0-.31-.06-.43-.19-.21-.23-.2-.6.04-.81l7.92-7.26c-.24-.29-.48-.58-.7-.89l-6.42,4.41c-.1.07-.21.1-.33.1-.18,0-.36-.09-.48-.25-.18-.26-.11-.62.15-.8l6.42-4.41c-.24-.39-.47-.78-.68-1.19l-11.18,5.35c-.08.04-.16.06-.25.06-.21,0-.42-.12-.52-.33-.14-.29-.02-.63.27-.77l11.18-5.35c-.22-.51-.41-1.03-.58-1.56l-10.61,2.97c-.05.01-.1.02-.15.02-.25,0-.48-.17-.55-.42-.09-.31.09-.63.4-.71l10.63-2.98c-.1-.41-.18-.83-.25-1.25l-7.05.87s-.05,0-.07,0c-.29,0-.53-.21-.57-.5-.04-.32.19-.6.5-.64l7.07-.88c-.03-.43-.06-.87-.06-1.31,0-.19,0-.37.01-.56l-8.05-.51c-.32-.02-.56-.29-.54-.61.02-.32.29-.56.61-.54l8.05.51c.09-.85.25-1.69.46-2.5l-11.75-3.52c-.3-.09-.48-.41-.39-.72.09-.3.41-.48.72-.39l11.76,3.52c.15-.45.33-.88.52-1.31l-7.89-3.81c-.29-.14-.41-.48-.27-.77.14-.29.48-.41.77-.27l7.9,3.81c.2-.38.43-.75.66-1.11l-2.44-1.68c-.26-.18-.33-.54-.15-.8.18-.26.54-.33.8-.15l2.45,1.68c.37-.49.77-.96,1.19-1.41l-6.16-6.18c-.22-.23-.22-.59,0-.82.22-.22.59-.22.81,0l6.17,6.19c.53-.49,1.09-.94,1.68-1.35l-5.76-8.83c-.17-.27-.1-.62.17-.8.27-.17.62-.1.8.17l5.77,8.83c.44-.26.9-.51,1.36-.73l-4.11-9.44c-.13-.29,0-.63.3-.76.29-.13.63,0,.76.3l4.12,9.45c.49-.19.99-.36,1.5-.5l-3.02-12.27c-.08-.31.11-.62.42-.7.31-.08.62.11.7.42l3.02,12.27c.45-.09.91-.16,1.38-.22l-.24-2.83c-.03-.32.21-.6.53-.62.32-.03.59.21.62.53l.24,2.83c.25-.01.5-.02.76-.02.11,0,.21,0,.32,0l.42-7.62c.02-.32.29-.56.61-.54.32.02.56.29.54.61l-.42,7.62c.54.05,1.07.12,1.6.22l3.06-13.24c.07-.31.38-.5.69-.43.31.07.5.38.43.69l-3.06,13.23c.66.18,1.31.4,1.93.65l4.19-9.23c.13-.29.47-.42.76-.29.29.13.42.47.29.76l-4.19,9.22c.43.21.85.44,1.25.69l6.26-9.42c.18-.26.53-.34.8-.16.26.18.34.53.16.8l-6.26,9.42c.75.53,1.46,1.13,2.1,1.78l8.03-7.36c.23-.22.6-.2.81.03.22.24.2.6-.03.81l-8.03,7.36c.24.28.48.57.7.86l6.53-4.48c.26-.18.62-.11.8.15.18.26.11.62-.15.8l-6.52,4.48c.24.38.47.77.69,1.17l11.27-5.39c.28-.14.63-.02.77.27.14.29.02.63-.27.77l-11.26,5.39c.22.5.42,1.02.59,1.54l10.68-2.99c.31-.08.63.09.71.4.09.31-.09.62-.4.71l-10.68,2.99c.1.41.19.82.26,1.24l7.09-.88c.32-.04.6.19.64.5.04.32-.19.6-.5.64l-7.08.88c.05.5.07,1.02.07,1.53,0,.11,0,.22,0,.33l8.04.51c.32.02.56.29.54.61-.02.3-.27.54-.57.54-.01,0-.02,0-.04,0l-8.03-.5c-.08.86-.22,1.7-.43,2.51l11.7,3.5c.3.09.48.41.39.72-.08.25-.3.41-.55.41Z"/>
          </g>
        </g>
        <g>
          <path d="M161.01,44.44h.35c3.5,0,6.29.87,8.38,2.62,2.09,1.75,3.14,4.25,3.14,7.51s-1.04,5.82-3.12,7.55c-2.08,1.72-4.88,2.59-8.4,2.59h-.35v3.33h-5.03v-3.33h-.32c-3.57,0-6.39-.86-8.45-2.57-2.07-1.71-3.1-4.24-3.1-7.57s1.05-5.76,3.15-7.51c2.1-1.75,4.9-2.62,8.4-2.62h.32v-2.98h5.03v2.98ZM155.66,60.21h.32v-11.27h-.32c-1.96,0-3.5.46-4.61,1.38-1.11.92-1.67,2.34-1.67,4.25s.55,3.3,1.65,4.24c1.1.93,2.64,1.4,4.62,1.4ZM161.01,60.21h.35c1.96,0,3.49-.47,4.59-1.4s1.65-2.34,1.65-4.24c0-3.76-2.08-5.63-6.24-5.63h-.35v11.27Z"/>
          <path d="M182.63,62.87h13.82v4.71h-19.1v-25.3h18.71v4.71h-13.43v5.32h10.45v4.61h-10.45v5.95Z"/>
          <path d="M216.94,59.51h5.49c-.38,2.58-1.51,4.64-3.38,6.2-1.88,1.56-4.27,2.34-7.18,2.34-3.8,0-6.78-1.2-8.91-3.6-2.14-2.4-3.21-5.57-3.21-9.52s1.08-7.12,3.23-9.52c2.15-2.4,5.12-3.6,8.9-3.6,2.76,0,5.07.72,6.91,2.15,1.84,1.43,2.98,3.33,3.4,5.69h-5.53c-.59-2.08-2.19-3.12-4.78-3.12-2.17,0-3.83.79-4.98,2.36-1.15,1.57-1.72,3.59-1.72,6.04s.57,4.47,1.72,6.04c1.15,1.57,2.81,2.36,4.98,2.36,1.35,0,2.46-.34,3.35-1.01.89-.67,1.46-1.61,1.72-2.82Z"/>
          <path d="M245.72,42.28v4.64h-7.87v20.66h-5.28v-20.66h-7.87v-4.64h21.02Z"/>
          <path d="M249.23,42.28h4.93v17.65h.92l9.11-17.65h7.12v25.3h-4.96v-18.04h-.92l-9.32,18.04h-6.88v-25.3Z"/>
          <path d="M294.77,53.98v.92c.94.43,1.73,1.12,2.36,2.09.63.97.94,2.06.94,3.26,0,2.22-.73,4-2.2,5.33-1.47,1.34-3.64,2-6.52,2h-12.19v-25.3h11.87c2.67,0,4.73.64,6.17,1.91,1.44,1.28,2.16,2.87,2.16,4.78,0,1.13-.23,2.14-.69,3.03-.46.89-1.09,1.54-1.9,1.97ZM282.43,52.31h5.95c2.36,0,3.54-.95,3.54-2.84s-1.19-2.8-3.58-2.8h-5.92v5.63ZM282.43,63.09h6.13c2.72,0,4.08-1.04,4.08-3.12s-1.34-3.23-4-3.23h-6.2v6.34Z"/>
          <path d="M319.47,67.59l-2.06-6.84h-9.64l-2.06,6.84h-5.21l8.04-25.3h8.19l8.08,25.3h-5.35ZM311.78,47.35l-2.66,8.79h6.88l-2.66-8.79h-1.56Z"/>
          <path d="M326.2,62.41h.89c1.04,0,1.81-.17,2.32-.51.51-.34.91-1.17,1.21-2.48.3-1.31.44-3.29.44-5.94v-11.2h18.54v25.3h-5.32v-20.59h-8.22v6.84c0,2.34-.12,4.32-.37,5.94-.25,1.62-.59,2.94-1.01,3.97-.43,1.03-1.02,1.83-1.79,2.39s-1.59.95-2.48,1.15c-.89.2-1.98.3-3.28.3h-.92v-5.17Z"/>
          <path d="M366.85,67.59h-11.41v-25.3h5.28v8.58h6.13c2.95,0,5.25.73,6.89,2.2,1.64,1.47,2.46,3.51,2.46,6.13s-.82,4.71-2.45,6.18c-1.63,1.48-3.93,2.21-6.91,2.21ZM360.72,62.94h5.25c1.72,0,2.96-.31,3.7-.94.74-.63,1.12-1.56,1.12-2.82s-.37-2.18-1.12-2.78c-.74-.6-1.98-.9-3.7-.9h-5.25v7.44Z"/>
        </g>
      </g>
      <g>
        <path class="cls-2" d="M29.4,136.42v-4.51l40.12-30.18c5.16-3.84,9.77-7.68,13.8-11.49.87-.83,1.73-1.66,2.54-2.49,12.66-12.72,18.99-25.27,18.99-37.63,0-8.53-1.79-15.86-5.39-22-.57-.99-1.18-1.95-1.86-2.86-1.93-2.69-4.27-5.12-6.99-7.28-9.49-7.53-22-11.33-37.5-11.33s-27.22,3.62-37.02,10.83C6.27,24.68.92,35.17,0,48.89h20.06c1.06-8.69,4.43-15.27,10.13-19.69,5.71-4.42,13.19-6.63,22.45-6.63,9.87,0,17.69,2.38,23.47,7.14,5.79,4.77,8.67,11.56,8.67,20.41,0,3.93-.73,7.75-2.15,11.41-1.45,3.66-3.59,7.17-6.38,10.51-2.82,3.33-5.32,6-7.53,8.06-2.21,2.04-5.12,4.48-8.77,7.33-9.58,7.91-21.65,17.08-36.25,27.55L.25,132.12v20.2h109.6v-15.89H29.4Z"/>
        <path class="cls-2" d="M137.42,22.63V6.91c-15.48.91-28.02,6.97-37.58,18.12-.76.87-1.47,1.78-2.17,2.71-9.01,12.08-13.49,29.4-13.49,51.96,0,2.26.04,4.46.14,6.6.87,20.83,6.01,36.77,15.42,47.79.03.04.07.07.1.11,2.48,2.9,5.15,5.44,8.04,7.64,8.22,6.3,18.08,9.78,29.54,10.47v-15.72c-10.58-1.01-18.62-6-24.16-14.91-6.27-10.1-9.4-24.07-9.4-41.98s3.13-32.08,9.4-42.17c5.54-8.91,13.58-13.89,24.16-14.91Z"/>
      </g>
      <g>
        <path class="cls-1" d="M144.11,31.58V6.64h8l4.09,10.06h.91l4.05-10.06h8.03v24.94h-4.86V13h-.91l-4.19,10.06h-5.21l-4.16-10.06h-.91v18.58h-4.86Z"/>
        <path class="cls-1" d="M180.16,26.93h13.62v4.65h-18.83V6.64h18.44v4.65h-13.24v5.24h10.31v4.54h-10.31v5.87Z"/>
        <path class="cls-1" d="M221.83,21.27h-5.17v10.31h-5.07v-10.31h-5.17l-4.23,10.31h-5.31l5.28-12.65-4.96-12.3h5.31l3.91,9.92h5.17V6.64h5.07v9.92h5.17l3.91-9.92h5.31l-4.96,12.3,5.28,12.65h-5.31l-4.23-10.31Z"/>
        <path class="cls-1" d="M256.45,26.93h3.56v10.76h-5.07v-6.11h-16.38v6.11h-5.07v-10.76h2.58c1.98-3.52,2.97-8.45,2.97-14.81v-5.48h17.4v20.3ZM251.39,26.93v-15.65h-7.51v2.2c0,5.82-.84,10.31-2.51,13.45h10.03Z"/>
        <path class="cls-1" d="M272.52,17.82h.98l5.28-11.18h5.28l-11.95,24.94h-5.21l3.56-7.48-9.22-17.47h5.45l5.83,11.18Z"/>
        <path class="cls-1" d="M303.82,6.64h5.21v24.94h-5.21v-10.45h-11.04v10.45h-5.21V6.64h5.21v9.71h11.04V6.64Z"/>
        <path class="cls-1" d="M331.21,31.58l-2.03-6.74h-9.5l-2.03,6.74h-5.14l7.93-24.94h8.07l7.96,24.94h-5.28ZM323.63,11.63l-2.62,8.66h6.78l-2.62-8.66h-1.54Z"/>
        <path class="cls-1" d="M340.01,6.64h11.39c2.86,0,5.08.7,6.66,2.1,1.57,1.4,2.36,3.34,2.36,5.83s-.79,4.52-2.36,5.94c-1.57,1.42-3.79,2.13-6.66,2.13h-6.18v8.94h-5.21V6.64ZM345.22,18.06h5.45c1.56,0,2.68-.28,3.37-.86.69-.57,1.03-1.43,1.03-2.57s-.34-2-1.03-2.57c-.69-.57-1.81-.86-3.37-.86h-5.45v6.85Z"/>
        <path class="cls-1" d="M367,9.8c2.13-2.41,5.12-3.62,8.96-3.62s6.83,1.2,8.96,3.62c2.13,2.41,3.2,5.51,3.2,9.31s-1.06,6.9-3.2,9.31c-2.13,2.41-5.12,3.62-8.96,3.62s-6.83-1.21-8.96-3.62c-2.13-2.41-3.2-5.51-3.2-9.31s1.07-6.9,3.2-9.31ZM375.96,27.39c2.24,0,3.93-.77,5.08-2.31s1.73-3.53,1.73-5.97-.58-4.44-1.73-5.97c-1.15-1.54-2.85-2.31-5.08-2.31s-3.9.77-5.07,2.32c-1.17,1.55-1.75,3.53-1.75,5.96s.58,4.41,1.75,5.96c1.16,1.55,2.85,2.32,5.07,2.32Z"/>
        <path class="cls-1" d="M412.75,26.93h3.56v10.76h-5.07v-6.11h-16.38v6.11h-5.07v-10.76h2.58c1.98-3.52,2.97-8.45,2.97-14.81v-5.48h17.4v20.3ZM407.68,26.93v-15.65h-7.51v2.2c0,5.82-.84,10.31-2.51,13.45h10.03Z"/>
        <path class="cls-1" d="M436.29,6.64h5.21v24.94h-5.21v-10.45h-11.04v10.45h-5.21V6.64h5.21v9.71h11.04V6.64Z"/>
        <path class="cls-1" d="M457.67,31.58h-10.41V6.64h5.21v8.45h5.2c2.93,0,5.21.72,6.83,2.17,1.62,1.44,2.43,3.46,2.43,6.04s-.81,4.64-2.43,6.1c-1.62,1.46-3.9,2.18-6.83,2.18ZM452.46,27h4.4c1.68,0,2.88-.3,3.62-.91.73-.61,1.1-1.53,1.1-2.76s-.37-2.12-1.1-2.74c-.73-.62-1.94-.93-3.62-.93h-4.4v7.34ZM469.69,6.64h5.21v24.94h-5.21V6.64Z"/>
        <path class="cls-1" d="M480.66,6.64h4.86v17.4h.91l8.98-17.4h7.02v24.94h-4.89V13.8h-.91l-9.19,17.78h-6.78V6.64ZM494.28,0h3.84c-.14,1.7-.79,3.02-1.94,3.96s-2.71,1.41-4.66,1.41-3.51-.47-4.66-1.41c-1.15-.94-1.8-2.27-1.94-3.96h3.84c.07.65.34,1.18.82,1.57.48.4,1.12.59,1.94.59s1.46-.2,1.92-.59.75-.92.84-1.57Z"/>
      </g>
    </g>
  </g>
</svg>